/* XPM */
static char *dec20e06f76842868a83b089782bf6f3tZUGOW6M2FF9hC16[] = {
/* columns rows colors chars-per-pixel */
"64 64 18 1 ",
"  c white",
". c #FEFEFE",
"X c black",
"o c #F8B6C5",
"O c #F9BDCA",
"+ c #FCFBFB",
"@ c #FAAEC0",
"# c #F7A6B9",
"$ c #F8C4D0",
"% c #F6D4DC",
"& c #F9EFF2",
"* c #F6CCD6",
"= c #F7E3E8",
"- c #FAF5F6",
"; c #EFAEBB",
": c #F6DCE2",
"> c #F8EAED",
", c #F69DB1",
/* pixels */
"XXXXXXXXXXXXXXXXXXXXXXXXXXXXXXXXXXXXXXXXXXXXXXXXXXXXXXXXXXXXXXXX",
"XXXXXXXXXXXXXXXXXXXXXXXXXXXXXXXXXXXXXXXXXXXXXXXXXXXXXXXXXXXXXXXX",
"XXXXXXXXXXXXXXXXXXXXXXXXXXXXXXXXXXXXXXXXXXXXXXXXXXXXXXXXXXXXXXXX",
"XXXXXXXXXXXXXXXXXXXXXXXXXXXXXXXXXXXXXXXXXXXXXXXXXXXXXXXXXXXXXXXX",
"XXXXXXXXXXXXXXXXXXXXXXXXXXXXXXXXXXXXXXXXXXXXXXXXXXXXXXXXXXXXXXXX",
"XXXXXXXXXXXXXXXXXXXXXXXXXXXXXXXXXXXXXXXXXXXXXXXXXXXXXXXXXXXXXXXX",
"XXXXXXXXXXXXXXXXXXXXXXXXXXXXXXXXXXXXXXXXXXXXXXXXXXXXXXXXXXXXXXXX",
"XXXXXXXXXXXXXXXXXXXXXXXXXXXXXXXXXXXXXXXXXXXXXXXXXXXXXXXXXXXXXXXX",
"XXXXXXXXXXXXXXXXXXXXXXXXXXXXXXXXXXXXXXXXXXXXXXXXXXXXXXXXXXXXXXXX",
"XXXXXXXXXXXXXXXXXXXXXXXXXXXXXXXXXXXXXXXXXXXXXXXXXXXXXXXXXXXXXXXX",
"       ..     ..       ..     ..       ..    ..        ..    .. ",
".     ..       ..    .++       ..     ..       ..    .+.      ..",
" ..  ..         .... .. ..      ..   .. ..      ..  +++         ",
"  ....         .    -&>+    .    .....    .      ..++.          ",
"   +.  ..    .  +++=*o;%-=O= . .. ..+ ..%&     +-+++.  ..       ",
" .. ..   .  . +:>>=%$*%o;;#$= .  ..&:+. =:&. . :=..             ",
"..   . &:. . +&%===%*=Ooo#oo=  >*- --  . .*o> ..-:>&->$$*= .    ",
".   . *;;%+  :*&>=:%+=OOo@#o . %$.   &>  :@#*%$:%@oOO@@#@> .  ..",
"   . =o#oo*%=&O*=%:=  >oOo,$ ..++..  %-.&ooOOo@@@ooo@o#,@+   .. ",
"   .-%;oooO@o**:>=%$& =@o@#= +.     +: :$oOO$OOo@@##@@#,,&  ..  ",
"  . :#@@oOOooo$%*%>%* =@O@o- .  +:>  &>%*O@oOO$$oO@#O#%O% +..   ",
"    &O%%;;;;oO$O$%-%$.:@$%>+.  .$,#*:Oo$*OoOOoO*$Oo@@o&%. ++    ",
"  .+&&. %;;$ooo$-->%= %@> &*+. >#Oo%o@o$oooOooOO*Oo#= -#=....   ",
" .+++ . &;;;o;;: .O:+ &: .++. -@O*@oooo$$OoooO$$Ooo@=+ *> . ..  ",
".    ...+O;oo$O;=>;;=   .   .>-$*=oOO@oO*OooO$*$ooO@#% ++     ..",
"..   .++ $#o;oo#o$O@O+..  . >O-:*O##@@o$OOOoOoo$oOO@@*+.       .",
" .. +++. *,#@o;#,O$**> .    -%o;##,,@O#o@@o$$Ooooooo@=>+        ",
"  .+++  +o#@@#@Oo#o:+-     . &,;o##*$;*,##@Oo$o#oOo@:+=         ",
"  +++   -;,#@Oooo$+ .     . :#%&%o*%%o=%;;@@#o$o@#*%=&% .       ",
" ++...   $,,O*@#o- ...    . >o%%&&=$o@O$;#@oOoOO@oo&=%&         ",
"++.  ... -o,#;OO> .  ..   . =o,,:=:&o#;#;,;*O;@@oo#% -        .+",
"+.     .. :@@& >-      ..  =#;###@@o$;$%OO#;;;@@@,#:. ..      .+",
"        .+ *#->->&+.    .. O,#oo@@oO%$O$= :oo*%@#$>-.  ...   .. ",
"         ..+:Oo+.-+..    +.$#@@oooOoO:*:+. *$..*,% >-    .. ..  ",
"          .+. ::&%>&  .    *#,#oOooOO*:- . =: .-** -:.    ++    ",
"          .++  .*#@O:. . ...%$%O@@OO$O*+ ...&+ >= >>&+  ....    ",
"         .. .+ +$oo@#%+  ..  . >;OoOo$+ ..   . &$&@%-&>+ +  ..  ",
"        ..   . &O$O@o##*.   ..++o#@##> ..    .. =::=>-:;:-+  .. ",
".      ..       %o$$Oo#*      . %#o$#= +      .+ -&--&-==-++   .",
"...   .        .+*O*OO@= .     .$@@Oo>%-        .   %#O:-  .+.+ ",
"  .. .         . &@O$OO- .    . *#@#=>O .         >$#,#,* .-+++ ",
"   +.          . &OOo$.       . >#,@+--          .o#,,,#@& +.   ",
"  ....         . &Ooo& .       . o#>   .        ..O,;,,;o>      ",
"..   ..        . =oo% .         .-  ...        .+.**-:##*  .    ",
".     ..       +.=,*  ..       ..  .  ..       ++. .  %o& . -. .",
"       ..     .. &;> . ..     ..       ..     ..  ... -& . .:+..",
"         ..  ..  -O-..  ...  ..         ..   ..       +- .-=-.  ",
"          ....   +*>+.    ....           .....        .   :& .  ",
"           +.     +&      .+.             .+              +.    ",
"         .. ..      .    .. ..           .. .            ....   ",
"        ..   ..         ..   ..         ..  ...         .   ..  ",
"       ..     ..       ..     ..      ...     ..       .      ..",
"..   .++       ..     ..       ..    ++.       ..     .        .",
"XXXXXXXXXXXXXXXXXXXXXXXXXXXXXXXXXXXXXXXXXXXXXXXXXXXXXXXXXXXXXXXX",
"XXXXXXXXXXXXXXXXXXXXXXXXXXXXXXXXXXXXXXXXXXXXXXXXXXXXXXXXXXXXXXXX",
"XXXXXXXXXXXXXXXXXXXXXXXXXXXXXXXXXXXXXXXXXXXXXXXXXXXXXXXXXXXXXXXX",
"XXXXXXXXXXXXXXXXXXXXXXXXXXXXXXXXXXXXXXXXXXXXXXXXXXXXXXXXXXXXXXXX",
"XXXXXXXXXXXXXXXXXXXXXXXXXXXXXXXXXXXXXXXXXXXXXXXXXXXXXXXXXXXXXXXX",
"XXXXXXXXXXXXXXXXXXXXXXXXXXXXXXXXXXXXXXXXXXXXXXXXXXXXXXXXXXXXXXXX",
"XXXXXXXXXXXXXXXXXXXXXXXXXXXXXXXXXXXXXXXXXXXXXXXXXXXXXXXXXXXXXXXX",
"XXXXXXXXXXXXXXXXXXXXXXXXXXXXXXXXXXXXXXXXXXXXXXXXXXXXXXXXXXXXXXXX",
"XXXXXXXXXXXXXXXXXXXXXXXXXXXXXXXXXXXXXXXXXXXXXXXXXXXXXXXXXXXXXXXX",
"XXXXXXXXXXXXXXXXXXXXXXXXXXXXXXXXXXXXXXXXXXXXXXXXXXXXXXXXXXXXXXXX",
"XXXXXXXXXXXXXXXXXXXXXXXXXXXXXXXXXXXXXXXXXXXXXXXXXXXXXXXXXXXXXXXX"
};
