/* XPM */
static char *ce2f4efbce90494e8a567c3d35c3374aFlhezAtswmz0qPsX[] = {
/* columns rows colors chars-per-pixel */
"64 64 252 2 ",
"   c #583757",
".  c #755667",
"X  c #8E5365",
"o  c #8B737F",
"O  c #687B98",
"+  c #8C738D",
"@  c #A9738F",
"#  c #7B8A9A",
"$  c #6A84A9",
"%  c #7587A5",
"&  c #6B8CB7",
"*  c #7796B6",
"=  c #7491AE",
"-  c #789BC4",
";  c #99819C",
":  c #A48895",
">  c #8889A6",
",  c #9696A9",
"<  c #8799B8",
"1  c #9396AE",
"2  c #A78AA6",
"3  c #A797A9",
"4  c #B79AA6",
"5  c #A79CB5",
"6  c #BA9AB3",
"7  c #89A7B7",
"8  c #96A9B9",
"9  c #97B1BD",
"0  c #8EA5AF",
"q  c #B8A4AB",
"w  c #A7AABB",
"e  c #B9A9B7",
"r  c #A3B3BD",
"t  c #A2B8BE",
"y  c #B9B4B8",
"u  c #AEA7A7",
"i  c #C88B9C",
"p  c #C39AA8",
"a  c #D49DB6",
"s  c #C898AD",
"d  c #CDADBA",
"f  c #C8A7B7",
"g  c #D5A9B9",
"h  c #C6B5BB",
"j  c #D6B2BC",
"k  c #C2A2AC",
"l  c #E3ACBD",
"z  c #E6AABD",
"x  c #89A9C6",
"c  c #97ABC6",
"v  c #8DB4CB",
"b  c #92B3CD",
"n  c #9CB4CA",
"m  c #98B9C8",
"M  c #86A8D2",
"N  c #8EB2DB",
"B  c #8AB7D7",
"V  c #95B5D3",
"C  c #9CB4D2",
"Z  c #9BBCD4",
"A  c #92B5DD",
"S  c #96BADB",
"D  c #9CBBDC",
"F  c #97B9D7",
"G  c #A3ADC8",
"H  c #B8ABC3",
"J  c #A4BBCD",
"K  c #A9B7C8",
"L  c #B5BACB",
"P  c #B9B6C9",
"I  c #A3BAD4",
"U  c #A2BCDB",
"Y  c #ADBCDC",
"T  c #A6B6D5",
"R  c #BBBDD4",
"E  c #B2BEDD",
"W  c #B6B8D4",
"Q  c #AEAED1",
"!  c #8CBAE4",
"~  c #8AB7E8",
"^  c #95BAE3",
"/  c #9ABBE3",
"(  c #97B8E8",
")  c #8DB2ED",
"_  c #A2BFE2",
"`  c #AEBFE1",
"'  c #B1BEE0",
"]  c #9D9EC2",
"[  c #C5ABC6",
"{  c #DBADC7",
"}  c #C8B8C8",
"|  c #D4BCC4",
" . c #D4BBCC",
".. c #D8B7C7",
"X. c #C7BAD4",
"o. c #D8BAD5",
"O. c #EAAAC6",
"+. c #F2AAC4",
"@. c #ECB2C6",
"#. c #ECB1C9",
"$. c #ECBBCC",
"%. c #E5B7C8",
"&. c #F1B4CB",
"*. c #E8BAD3",
"=. c #9CC3D5",
"-. c #9DC2DB",
";. c #96C0D4",
":. c #98C2C6",
">. c #A9C3CB",
",. c #B5C3CC",
"<. c #A4C4D4",
"1. c #ACC2D4",
"2. c #A3C3DD",
"3. c #ADC4DA",
"4. c #A3CADC",
"5. c #ABCBDC",
"6. c #AAC9D5",
"7. c #B4C4D4",
"8. c #BCC4D4",
"9. c #B3CBD5",
"0. c #BDCCD6",
"q. c #B4C4DC",
"w. c #BCC5DB",
"e. c #B4CBDB",
"r. c #BBCBDC",
"t. c #B8D2DB",
"y. c #ABD2DE",
"u. c #9EC1EA",
"i. c #A4C4E3",
"p. c #ACC4E3",
"a. c #A6CAE3",
"s. c #ABCBE2",
"d. c #ACCBEB",
"f. c #A7C5EA",
"g. c #B4C2E2",
"h. c #B4CBE3",
"j. c #BACBE2",
"k. c #B3CCEB",
"l. c #BDCBEB",
"z. c #B8C5E7",
"x. c #AED2E5",
"c. c #BCD3E4",
"v. c #B3D4EC",
"b. c #BDD3EB",
"n. c #BCDDEC",
"m. c #B6D6E6",
"M. c #A2C5F2",
"N. c #A7C9F3",
"B. c #BDCDF1",
"V. c #BED7FE",
"C. c #B9D7F4",
"Z. c #BEE4EC",
"A. c #BBE7EB",
"S. c #BCE4FA",
"D. c #BEE8F6",
"F. c #C3C5C5",
"G. c #CCC6C9",
"H. c #D2C5CC",
"J. c #DCC3CD",
"K. c #D6C7CA",
"L. c #C3C3D4",
"P. c #CBC4D4",
"I. c #C3CCDB",
"U. c #CCCBDB",
"Y. c #C7C7D7",
"T. c #D8C8D8",
"R. c #C2D1DD",
"E. c #C9D3DA",
"W. c #D6D5DA",
"Q. c #CED0CF",
"!. c #E3C5CE",
"~. c #E4C4D3",
"^. c #E2CBD4",
"/. c #E9C6D8",
"(. c #F2C9D8",
"). c #E4D3DB",
"_. c #EAD3DC",
"`. c #E6D8DA",
"'. c #F6D3DC",
"]. c #C4CBE2",
"[. c #CCCCE3",
"{. c #C5CDEC",
"}. c #CCCCEC",
"|. c #C6C4E6",
" X c #D6CBE5",
".X c #C3D3E3",
"XX c #CBD4E4",
"oX c #C4D4EB",
"OX c #CBD4EC",
"+X c #C4DCEC",
"@X c #CCDBEC",
"#X c #C9DAE4",
"$X c #D3D4E3",
"%X c #D3DCEB",
"&X c #D8D6EA",
"*X c #C4CDF1",
"=X c #CCCCF3",
"-X c #CACEFB",
";X c #C9C5F9",
":X c #D2CCFD",
">X c #D4CEF2",
",X c #CBD2F4",
"<X c #CBDAF2",
"1X c #C5D4FC",
"2X c #CBD2FC",
"3X c #C6DBFC",
"4X c #CAD9FC",
"5X c #C5D9F4",
"6X c #D2D3F3",
"7X c #D3D3FD",
"8X c #D2DCFD",
"9X c #D8D8F7",
"0X c #E6DBE4",
"qX c #F4D8E2",
"wX c #E3D8F8",
"eX c #EECAE3",
"rX c #C3E5EB",
"tX c #CCE4EB",
"yX c #C3E7EC",
"uX c #D6E3E9",
"iX c #C3E4F3",
"pX c #C3EBF2",
"aX c #C2EAFD",
"sX c #CAE7F6",
"dX c #D3E4F2",
"fX c #D9E8F8",
"gX c #CBF2FE",
"hX c #D6F3F9",
"jX c #E8E6E9",
"kX c #F6E6EB",
"lX c #E3EDFC",
"zX c #E6E7F8",
"xX c #FDECF4",
"cX c #F5EAF5",
"vX c #E4F3FD",
"bX c #EBF4FC",
"nX c #ECFDFE",
"mX c #E9F1F5",
"MX c #F4F3F4",
"NX c #FCF4F6",
"BX c #F5F5FC",
"VX c #FEF5FB",
"CX c #F5FDFE",
"ZX c #FFFDFF",
"AX c #FDFFFF",
"SX c #FCFFFF",
"DX c white",
"FX c #FFFEFF",
"GX c #FEFEFD",
"HX c #FEFEFE",
"JX c #FAF9F6",
"KX c #EDF0EF",
/* pixels */
"DXDXDXDXDXDXDXDXDXDXDXDXDXDXDXDXNXJXDXDXDXDXDXDXDXDXDXDXDXDXDXDXDXDXSXDXZXZXDXDXDXDXDXDXDXDXDXDXDXDXDXDXDXDXDXDXDXDXDXDXDXDXDXDX",
"DXDXDXDXDXDXDXDXDXDXDXDXDXDXDXDXGXGXDXDXMXJXDXDXDXDXDXDXDXDXDXDXDXDXSXDXDXZXDXDXDXDXDXDXDXDXDXDXDXDXDXDXDXDXDXDXDXDXDXDXDXDXDXDX",
"DXDXDXDXDXDXDXDXDXDXDXDXDXDXDXDXDXDXGXJXDXDXZXGXGXJXJXJXJXJXJXJXDXDXDXDXDXDXDXDXDXDXDXDXDXDXDXDXDXDXDXDXDXDXDXDXDXDXDXDXDXDXDXDX",
"DXDXDXDXDXDXDXDXDXDXDXDXDXDXDXDXDXDXJXNXK._.xXDXDXDXDXDXDXDXDXDXDXDXDXDXDXDXDXDXDXDXDXDXDXDXDXDXDXDXDXDXDXDXDXDXDXDXDXDXDXDXDXDX",
"DXDXDXDXDXDXDXDXDXDXDXDXDXDXDXDXDXDX`.H._.4 p qXDXDXSXDXW.MXDXDXDXDX`.cXDXDXDXDXDXDXDXDXDXDXDXDXDXDXDXDXZXDXDXDXDXDXDXSXDXDXDXDX",
"DXDXDXDXDXDXDXDXDXDXDXDXDXDXDXDXJXjXH._.!.(.%.4 `.DXDXMXF.jXKXQ.G.W.h W.DXDXDXDXDXDXDXDXDXDXDXDXDXDXDXDXDXDXDXDXDXDXDXDXDXDXDXDX",
"DXDXDXDXDXDXDXDXDXDXDXDXDXDXDXDXDXG.`.^.j $.&.g h KXDXuXQ.KXjXF.Q.} H.G.DXDXDXDXDXDXDXDXDXDXDXDXDXDXDXDXDXDXDXDXDXZXJXDXDXDXDXDX",
"DXDXDXDXDXDXDXDXDXDXDXDXDXDXDXDXDXK._.!.j $.@.g e W.jXY.uXuXE.y y e } H.DXDXDXDXDXSXSXSXSXDXSXSXSXZXZXZXzXzXjX&X$XW.jXDXDXDXDXDX",
"DXDXDXDXDXDXDXDXDXGXDXDXJXZXNXDXkXJ.'.g l z @.{ } dX%X@Xr.>.6.t w } o.).JXDXDXCXCXCXBXbXvXlXzXfX9X6X6X,X,X,X,X>X&X[.BXDXDXDXDXGX",
"DXDXDXDXDXDXDXDXGXGXJXJXGXjXy jXkXJ.'.l z z l d P fX%X7.0 <.m 0 , 3 6 } cXmXuXuXdX6X@XOX@XOXOXOX8X7X2X2X2X2X2X2X:X}.BXDXDXDXGXGX",
"DXDXDXDXDXDXGXDXDXZX`.`.DXJXh d NX| (.%.a g j } w G 8 1.9.9 # 9 r L P , w OX@XOX8X8X4X,X8X8X8X8X8X7X2X2X2X2X2X2X6X}.BXDXDXDXGXGX",
"DXDXDXDXDXGXGXDXDXVX} y h GX| j VX| (.%.$.{ k 2 w .X@XvX@X8 9 t.@XlXlXw.E 8X{.{.4X2X*X*X*X-X4X4X8X7X2X2X2X2X2X2X6X}.BXDXDXDXGXGX",
"DXDXDXDXDXDXDXZXVXVXZX$Xh | ..d ^.....eX*...3 $XfX.XdXdX@X0 8 R.0.dX7.8 c 8X4X2X2X2X2X-X2X-X-X-X7X2X2X2X2X2X2X-X=X9XDXDXDXDXDXGX",
"DXDXDXDXBXzXzXzXwX>X}.[.P.[ f d  . .o.*...[ 3 %X9.sXsXhXr.1 r @XL 8.r.J c 8X4X2X2X2X2X-X2X-X-X2X2X2X2X2X2X2X2X-X=X9XDXDXDXDXDXGX",
"DXDXDXDXzX|.=X;X-X-X=X6X X} [ ..f 6 2 2 ; 2 , tX6.iXiXsXe.# , W.y P.vX9.c 8X4X1X2X2X2X2X2X2X-X2X2X2X2X2X2X2X2X-X=X9XDXDXDXDXDXGX",
"DXDXDXDXBX}.:X;X;X2X;X=X>XT.o./.2 ; 2 e H H 0 +XrX5.n.n.9 > 3 3 : d w G c 8X4X1X2X2X2X2X,X,X2X2X2X1X2X2X2X2X,X,X}.&XDXDXDXDXDXGX",
"DXDXDXDXZX>X:X;X;X-X7X9XwX[ *.*.6 } } } $XfX7 t.sXm.iXn.8 w @ X i @.o w ].8X4X1X4X4X4X2X,X,X2X1X1XV.1X1Xz.l.,X6X%XMXBXDXDXDXDXDX",
"DXDXDXDXZX6X:X;X:X;X=X9X, ; *.*.k } X.$XvXc.:.:.6.m m 7 7 , @ X X . 4 U.OX4X3X1X4X4X4X2X2X,X2X1XV.V.V.1X4X,X,X[.P G.JXZXDXDXDXDX",
"DXDXDXDXZX9X;X:X:X:X7X|.+ o.eX*. .cXH bXfXJ >.7 7 =.S.=.x.G + X X : BXI.sX3X4X4X2X2X2X2X2X2X2X1XV.V.1X1X6X|.P w H.H.G.VXDXDXDXDX",
"DXDXDXDXBXwX|.:X9X:X*X{.1 } T.o.o.X.Y.].lXe.n.5.y.v a.v.m.r.q 4 h jX0.9.iX3X4X4X4X2X2X2X2X2X2X1X1X1X2X,XW X. XeXqXqX_.h ZXDXDXDX",
"DXDXDXDXDXzX|.:X9X>X{.}.9X&XX.[ X.|.>X6X,XOXj.<.4.4.C 2.5.9.G.} W.,.>.6.n.3X4X4X8X8X8XfX2X2X2X2XfX4X{.|. X~.*.%.%.%.!.^.T.VXDXDX",
"DXDXDXDXDXlX;X:X7X>X{.OXOX6XQ |.>X>X6X=X*X*X{.g.5.5.q.G n r e q Q.,.1.m.n.5X4X4X{.<X8X<X{.{.{.oXl.<X|. Xo.*.&.#.@.@.$.~.| VXDXDX",
"DXDXDXDXDXBX7X:X9X&XOX<XdXq.{.9X6X=X*X*X*Xl.l.l.3.l.W Q ].Y.H.H.y Y..Xc.+X5X<X<X#XR..XdXfXfXfXfXoXK 9XX.o.#.+.+.+.@.$.~.h jXDXDX",
"DXDXDXDXDXZX9X>X>X XOX<Xl.T {.*X*X*XB.B.B.l.z.z.G }.G wX6X&X).).} H L.fX+X<X<X<X@XdXfXdXR.R.R.c.@X7.U.[ { O.+.+.+.&.&.(...J.DXDX",
"DXDXDXDXZXBXzXU.0XP.fXj.3.I T z.k.k.k.k.k.g.g.g.' > Q |.[.U.T.~...~.[ U.oXc.oXoXj.j.j.j.j.j.q.q.e.].L.[ #.O.z i @.@.&.#.(./.ZXDX",
"DXDXDXDXDXDXcX&XU.$XXXc.3.b.C z.a.i.a.i.2.Y _ Y ] > W }.[.U.T.~.(.~.P.w r.+XoXj.j.h.h.h.h.j.l.b.c..XR e O.O.i g #.@.&.#.*._.ZXSX",
"VXVXVXxX0X0X).T.W.dXe.5.m 2.x D 2.2.2.U U D U U > 1 E j.OXU.T.~... .} XX.Xq.q.b.h.h.h.h.h.h.h.q.h.j.w.H { a a g #.#.#.%...kXVXZX",
"VXVXxX_.} H.J.} zXtX6.Z ;.V V D -.D D D 2.U Z I < G T J OXU.T.T.} [ $XI.9.e.r.q.h.h.h.h.b.3.n c Z e.].P.6 *.s l #.#.%.%.| xXBXZX",
"ZXVXT.h kXVXkXH.W.r.9 =.;.-.a.d.d.b 2.i.2.2.b < < Y I s.+XI.P.T.P.P.8.0.9.e.e.r.b.3.h.3.3.1.J Z I J L P X.o.a #.O.%.*.J.H.BXDXSX",
"VXkXh 0XZXDXVX0Xy 0.c.<.4.a.d.k.v.2.v.d.2.2.b * < U 2.v.+XXXU.T.P.Y.0.t.t.e.e.r.3.b.3.I 3.1.I <.<.<.1.L 8.} g O.l { ~.e 0XBXDXDX",
"ZXjXy DXDXDXZXBXy Y.7.+Xb.C.B.B.d.a.C.i.U Z x = = 2.a.v.+X@X$XP.U.,.,.t.9.e.e.r.e.3.n 3.1.1.3.5.5.5.e.7.,.P g O.l %. .H.CXCXBXSX",
"ZXW.G.ZXDXZXBXBX} L.].+XsX3X1XB.D i.v.C Z C x = * i.a.v.n.sX@X8.I.K t 9.9.e.r.r.7.T q.n 1.3.e.h.y.y.e.r.K P f { g /.} DXDXCXMXSX",
"DX0Xy DXDXDXDXZXT.P XX<X4Xl.3Xi./ F d.U C C % % * i.i.s.Z.rXrXtXbXzX,.I.7.7.w.w.W R L j.e.1.e.m.<.y.e.r.P X.e  . .H.cXDXSXSXSXSX",
"DXDXF.BXDXDXDXZXT.} [.<X<X*Xd.i./ S d.U C x % % x i.2.x.D.Z.Z.rX#XbX0.L.E.I.8.R R Y.W w.R 7.c % J h.1.XX9XzXwXT.P.DXDXBXDXDXSXSX",
"DXDXKXMXDXDXDXZXT.} I.OXoX5X_ f./ ^ d.U D * % % V 2.D v.D.Z.yXrXR.uX%XK K L R L.I.[.H 5 5 , # O w.G K fX@XI.I.$XDXJXDXDXDXDXDXDX",
"DXZXDXDXDXDXDXZX).} I.oXb.k._ M./ ^ d._ D % % % Z -.Z x.D.rXyXyXtXtX0.r , , , , > 5 , ; 3 X.[.R L w OX#X9.dX+XhXDXDXDXDXDXDXDXDX",
"DXDXDXDXDXDXDXVXo.} L.j.5Xi./ M.M.( / i.D % % < C -.-.a.n.iXrXyXrXtXtX#Xw , 5 5 +   . R L ].I.L.K I.fX7.tXsXrXhXCXDXDXDXDXDXDXDX",
"DXDXDXDXDXDXDXVX....L..Xk._ ( M.M.( / i.D % = c V -.-.a.m.Z.rXyXrXrXtX%X$Xw H o.o.[ } Y.7.j.w.7.I.XX.X@XsXpXZ.hXCXDXDXDXDXDXDXDX",
"DXDXDXDXDXDXDXVXg j Y.+Xi.u.( M.M.( / i.U O < c V -.-.4.x.n.yXyXyXrXtXtXXX$XT.X.P $Xw w L 7.7.r.+X9.hXrXsXsXrXhXCXDXDXDXDXDXDXDX",
"DXDXDXDXDXDXDXVXj d L.+X-.f.u.^ M./ D p.T O c C V -.=.5.5.m.Z.D.A.yXyXtXXXdXU.L.L G 7.K c J c.iXe.tXhXyXpXpXrXvXSXDXDXDXDXDXDXDX",
"DXDXDXDXDXDXDXZXk q 8.v.D i./ V p.p.` ` T % G C b F x n J h.S.S.S.aXaXaXsXiXsXh.s.7 $ f./ O b 4.m.Z.pXA.pXpXsXCXSXDXDXDXDXDXDXDX",
"DXDXDXDXDXDXDXZXd e OXv.d.D _ _ ` E ' ' Y < T T i.v c 0 J m.S.S.S.S.S.S.S.S.aXv.v.* & ( M & * 4.y.A.A.A.pXsXfXCXDXDXDXDXDXDXDXDX",
"DXDXDXDXDXDXDXZX^.e .XS.d./ u./ ` E E E g.T T C a.;.<.m m n.aXaXaXaXaXS.S.S.aXv.v.x & M & & D s.4.m.iXpXsXdX%XuXDXDXDXDXDXDXDXDX",
"DXDXDXDXDXDXDXDXVXW.e.-./ u.^ A p.E E E Y T G c k.s.8 8 t .XaXaXaXaXaXaXaXS.aXv.-.i.& & - / D Z Z x.iXsXdX%XP.P jXDXDXDXDXDXDXDX",
"DXDXDXDXDXDXDXDXBXr.2.S ^ ( ! ^ p.g.g.g.Y c E < h.I 3 }  . XfXgXaXaXaXaXaXgXgX4.a.a.- $ ( N.V v b k.3.W R  XT.} G.W.W.JXDXDXDXDX",
"DXDXDXDXDXDXDXSXvXe.;.^ ( ~ ~ ! p.g.g.g.g.c T c s.9 } f g J.%XgXaXaXaXaXaXgXv.-.s.a.* M N./ C.v V p.E Q T.e J.f y y G.DXDXDXDXDX",
"DXDXDXDXDXDXDXCXdX<.B ! ! ~ ~ ! f.' g.g.z.T Y Y c .Xe j p } XXsXaXaXaXaXaXS.-.V a.i.- u.M.N.f.V D p.{.X.f f g !.h y Q.JXDXDXDXDX",
"DXDXDXDXDXDXDXCXtXZ B ! ~ ~ ~ ~ f.g.q.q.Y j.l.g.c 7.U.e 3 y XXsXaXaXaXaXgXx.-.x F D A M.( u./ M F U {.H H  .d !.VXy F.DXDXDXDXDX",
"DXDXSXSXBXSXDXbXc./ ( ( ) ) ~ N D p.n L r.q.h.s.I I c.w.w X.XXdXpXpXpXpXiX4.x F V S A N ( ( u.x _ p.*XG .X8.H  .ZXjX`.NXGXDXGXGX",
"DXDXSXSXSXDXJXuXj.i./ ( ( ) ! A i.<.9 r K r.5.v.p.c Z h.I.L L.fXhXhXhXgXsX2.2.2.V N / u./ ( M D i.Y ,XG Z.rXP } ZXNXGXDXDXDXGXGX",
"DXSXSXSXDXSXDXDX@Xh.b D S S S V Z 1.#XdXE.7.c.h.b.c n J I.9XBXCXnXnXnXnXvXoXb.p.D N N ^ / ^ M S -.3.}.G m.gXBXkXDXDXDXDXDXDXGXGX",
"DXSXSXSXSXZXDXDXCXnXdXe.n b b b c J dXmXCXlX.Xh.l.j.fXvXBXDXDXDXSXSXSXSXSXbXw.Y / A M - A ^ / M Z b.R L t.hXDXVXDXDXDXGXGXDXGXGX",
"DXDXDXDXDXDXDXDXSXCXCXCXnXc.1.n J dXbXZXDXSXfX+Xc.r.lXBXDXDXDXDXSXSXSXSXDXBX8.].F A N A A N f.i.Z m.r.9 CXCXSXSXDXGXGXGXGXGXGXGX",
"DXDXDXDXDXDXDXDXDXSXSXCXCXuX.Xr.r.vXDXDXDXDXnXfX@XI.Y.BXDXDXGXGXGXSXSXSXBXDX$X7._ ^ N N A ^ A d.n.m.c.0.SXSXCXCXSXGXGXGXGXGXGXGX",
"DXDXDXDXDXDXDXDXDXDXDXDXCXmX.Xr.I.mXZXGXGXDXDXbXfXE.} jXDXDXGXJXSXCXCXCXDXCX%Xj.F A N A - u.u.i.=.m ,.E.CXSXCXCXGXGXGXGXGXGXGXSX",
"DXDXDXDXDXDXDXDXDXZXDXDXDXBXU.L.W.BXDXGXGXZXDXDXBXW.W.K.DXGXJXJXGXGXSXSXDXDXmX7.7 b Z i.k.V F m m 9.mXCXCXSXSXSXGXGXGXGXGXGXSXSX",
"DXDXDXDXDXDXDXGXT.^.^.J.).qX0X} P.jXGXDXZXGXZXZXDXcXK.h kXjX`._.'.'.^.).NXSXCXCXvX7.r 0 #X#X0.K 0.,.nXDXSXDXDXDXDXGXDXGXDXDXDXSX",
"DXDXDXDXDXDXDXW.K.~.~.| ......h H.jXVXDXZXZXZXZXDXVX`.h q y h K.%.(.$.j | ZXNXZXNXjXF.F.uXCXCXuXF.F.Q.ZXZXVXxXkX0XNXDXDXDXDXDXSX",
"DXDXDXDXDXDXJXy q 4 k j d ....f e } DXDXZXZXZXZXDXZXkX`.G.G.G.| d p p p p j (.(.!.J.h y W.SXCXSX0XG.y _.~./.(.qX^.H.MXNXDXDXSXSX",
"DXDXDXDXDXDXDXDXkX_.)._.^.^.^.).W.JXVXDXDXZXZXZXDXDXDXDXGXGXNXNX'.qX'.(.: $.@.l %.....f G.DXCXDXJXK.e h ..j g d | h u MXDXDXSXSX",
"DXDXGXGXDXDXDXDXDXDXDXDXDXDXDXDXDXDXDXDXDXDXDXDXDXDXDXDXDXDXGXGXZXZXZXVXq k p g g g d h G.DXnXSXDXBXjXT.T.J.J.J.e y G.NXGXDXCXCX",
"DXGXGXGXDXDXDXDXDXDXDXDXDXDXDXDXDXDXDXDXDXDXDXDXDXDXDXDXDXDXGXGXSXSXDXZXZXkXkXxXxXxXxXNXJXDXDXSXSXSXSXDXZXZXVXVXVXNXNXDXDXSXCXCX",
"DXGXGXGXDXDXDXDXDXDXDXDXDXDXDXDXDXDXDXDXDXDXDXDXDXDXDXDXSXSXSXSXSXDXDXZXGXDXDXVXDXDXDXDXDXSXCXCXCXSXDXDXDXZXVXVXDXDXZXDXDXSXCXCX",
"DXGXGXGXDXDXDXDXDXDXDXDXDXDXDXDXDXDXDXDXDXDXDXDXDXDXSXSXSXCXSXSXDXDXDXDXDXDXDXZXDXSXSXSXSXDXDXDXCXDXDXJXDXZXVXVXZXNXVXDXDXSXCXCX"
};
