/* XPM */
static char *f5122530dfca4afca968aba366369ac2uJqgoRRZMzgHzPfK[] = {
/* columns rows colors chars-per-pixel */
"64 64 242 2 ",
"   c #683233",
".  c #6F5455",
"X  c #60615C",
"o  c #7F5C63",
"O  c #696766",
"+  c #797675",
"@  c #5D5B5C",
"#  c #AB1517",
"$  c #B02A2A",
"%  c #C71615",
"&  c #C93738",
"*  c #905358",
"=  c #A85056",
"-  c #895D66",
";  c #88686C",
":  c #93636D",
">  c #97666C",
",  c #8A6C73",
"<  c #936B74",
"1  c #9C6B77",
"2  c #88777A",
"3  c #98767B",
"4  c #A26C79",
"5  c #A7747B",
"6  c #A2706F",
"7  c #8D615E",
"8  c #DA5A6D",
"9  c #E15E74",
"0  c #DD6978",
"q  c #CC6B74",
"w  c #E2647A",
"e  c #A8897D",
"r  c #967C82",
"t  c #8B7C81",
"y  c #A57C85",
"u  c #AD7A84",
"i  c #AA7987",
"p  c #B37D8B",
"a  c #B6798A",
"s  c #A06D80",
"d  c #C67D94",
"f  c #E37385",
"g  c #838282",
"h  c #8B8989",
"j  c #9C8285",
"k  c #958586",
"l  c #949493",
"z  c #9B9393",
"x  c #9C9C9C",
"c  c #9F9498",
"v  c #978E92",
"b  c #AC848C",
"n  c #A88789",
"m  c #B4838D",
"M  c #B8858B",
"N  c #A79088",
"B  c #AC8A94",
"V  c #BB8493",
"C  c #BC8A95",
"Z  c #B68895",
"A  c #A59295",
"S  c #A89999",
"D  c #B49599",
"F  c #B9928B",
"G  c #A9A29C",
"H  c #B8A598",
"J  c #9E9DA2",
"K  c #A89FA1",
"L  c #BC99A3",
"P  c #A4A3A3",
"I  c #ACABAB",
"U  c #A9A6A6",
"Y  c #B4A2A4",
"T  c #B9A9AB",
"R  c #B8B4AE",
"E  c #BEAEB2",
"W  c #B4B3B3",
"Q  c #BCB4B4",
"!  c #BCBBBB",
"~  c #B7B9B9",
"^  c #C38594",
"/  c #C78698",
"(  c #C9859B",
")  c #C48D9B",
"_  c #CA8B9B",
"`  c #C68995",
"'  c #D58898",
"]  c #CC9295",
"[  c #E48994",
"{  c #D7A59A",
"}  c #DAAB91",
"|  c #E8AC8E",
" . c #E7AA97",
".. c #E8B69B",
"X. c #F0BC97",
"o. c #CB88A2",
"O. c #D48CA3",
"+. c #D889A5",
"@. c #C997A6",
"#. c #D594A4",
"$. c #DD98A9",
"%. c #D09FB0",
"&. c #E39BA8",
"*. c #ED97B7",
"=. c #F499BC",
"-. c #E18CAB",
";. c #C5AAB3",
":. c #C3BBBD",
">. c #C6B6B7",
",. c #D6B9B9",
"<. c #D2AFAB",
"1. c #EBABA6",
"2. c #ECBCA4",
"3. c #E9BBA8",
"4. c #F2BBA5",
"5. c #E6ABB2",
"6. c #EBB9B5",
"7. c #F4B8B6",
"8. c #F3AEA7",
"9. c #C4C0BC",
"0. c #CEC7BF",
"q. c #D8C3B7",
"w. c #E8C4AB",
"e. c #F2C6AA",
"r. c #E3CABB",
"t. c #EBC9B7",
"y. c #F3CBBC",
"u. c #F4C6B8",
"i. c #F5D3BD",
"p. c #EFD2BB",
"a. c #BBBEC1",
"s. c #DBB9C5",
"d. c #E7B8C7",
"f. c #FCB4CF",
"g. c #F9B9CC",
"h. c #FDB2D1",
"j. c #FCBBD4",
"k. c #FDBFD8",
"l. c #ECAFC7",
"z. c #BFC1C0",
"x. c #C3C3C3",
"c. c #CBC4C5",
"v. c #CAC9C5",
"b. c #CCCBCB",
"n. c #CBC5CA",
"m. c #D2CCCB",
"M. c #D7C8C8",
"N. c #CCCDD1",
"B. c #D8CBD2",
"V. c #D4D3D3",
"C. c #DBD3D5",
"Z. c #DCD9D5",
"A. c #D6D5D9",
"S. c #DCDCDC",
"D. c #D8D8D9",
"F. c #D1D4D1",
"G. c #E7C9C8",
"H. c #F7C3CD",
"J. c #F4CCCB",
"K. c #F6C7C7",
"L. c #ECD3C4",
"P. c #EDD3CB",
"I. c #ECD9CE",
"U. c #E7D4C8",
"Y. c #F5D3C4",
"T. c #F6DAC5",
"R. c #F4D4CC",
"E. c #F4DCCD",
"W. c #F9DBCD",
"Q. c #F9D8C5",
"!. c #EBC7D3",
"~. c #FCC2D6",
"^. c #FCC4DA",
"/. c #FCCADD",
"(. c #F6C9D5",
"). c #E3D6D4",
"_. c #E6D6DD",
"`. c #EBD4DD",
"'. c #E2DBDC",
"]. c #E8DBD6",
"[. c #F5D4D4",
"{. c #F4DBD4",
"}. c #F9DDD3",
"|. c #F5D4DB",
" X c #F9D4DC",
".X c #F5DDDA",
"XX c #FADCDB",
"oX c #F9D2D4",
"OX c #DEE0DD",
"+X c #F9E1CE",
"@X c #E1E1DF",
"#X c #EBE2DC",
"$X c #F4E2D3",
"%X c #F9E3D5",
"&X c #F5E4DC",
"*X c #F9E4DC",
"=X c #F9E9DC",
"-X c #F5E8DB",
";X c #DDDCE1",
":X c #FCCFE0",
">X c #ECDCE3",
",X c #E7D9E1",
"<X c #F4D5E2",
"1X c #FCD4E3",
"2X c #FCDBE5",
"3X c #FCDDEA",
"4X c #F7DAE6",
"5X c #DEE3E8",
"6X c #E3E3E3",
"7X c #EBE4E4",
"8X c #EBEAE6",
"9X c #E4E5E9",
"0X c #EBE6EA",
"qX c #E4EAEB",
"wX c #ECECEC",
"eX c #E6E8E7",
"rX c #F5E2E3",
"tX c #FAE4E4",
"yX c #F5EBE3",
"uX c #FAEAE4",
"iX c #F3E5EA",
"pX c #FCE3EB",
"aX c #F3EDEB",
"sX c #FBEBEC",
"dX c #EFF1EE",
"fX c #F3F1ED",
"gX c #FAF3EC",
"hX c #F9F3E9",
"jX c #EDEEF1",
"kX c #E3EBF1",
"lX c #F2EEF0",
"zX c #FCECF2",
"xX c #FCE7F0",
"cX c #EDF2F4",
"vX c #EEF6F9",
"bX c #F4F4F4",
"nX c #FBF3F4",
"mX c #FAFAF5",
"MX c #F5F6F8",
"NX c #F6F9F9",
"BX c #FBFBFA",
"VX c #F9F7F7",
/* pixels */
"f.h.f.h.h.h.h.j.j.j.~.^./.1X1X3X3XpXpXtXXX}.u.L.nXVXmXBXVX&XhXuX=X%XT.y.| 3.mX5XkXcXcXqXcXbXcXwXiXU.{..XrXrXpXpX2X1X:X^.~.j.j.h.",
"h.h.f.f.h.h.j.j.j.~.^./.1X2X3XpXpXxXzXsXR.}.y.gXmXBXBXBXBXyXgXhXyX=X+XT.e.} fX5X5XcXcXcXjXMXcXqXrX7X0X_.`.>X<X3X2X1X/.^.~.j.g.h.",
"h.h.f.h.h.j.j.j.~.^./.1X2X3XpXsXzXzXzXsX{.*X=XaXBXmXBXBXBXhXhXmXhXuX-XT.t.U.mXwXkXcXMXvX9XcXbXG.' 0 !.B.B.<X<X3X2X/./.^.j.j.j.h.",
"h.h.f.h.h.j.j.j.~.^.:X1X2XpXpXsXzXzXzXrX=X$X$XyXmXBXBXBXBXgXuXmXmXhX=Xq.H H 8XcXkXcXMXcXa.~ d.6.g.0 &.B.>X<X<X2X1X:X^.~.j.j.h.h.",
"h.h.f.h.h.j.j.~././.1X1X3XpXsXsXzXnXsX$XR.p.p.=XbXBXBXBXBXmX-XmXmXfX9.v.wXG q.cXqXcXcXcXN., 5.aX5.9 ' >X<X<X<X2X:X/.^.j.j.j.h.h.",
"h.h.f.h.j.j.~.^./.:X2X3XpXzXsXzXnXnX{.I.G R C.#X7XBXBXBXBXBXfXyXVXv.V.fXbXH } 8X5XF.wXbXC.] sXrXf w &.>X`.<X1X1X/.^.~.k.j.h.f.h.",
"h.h.h.h.j.j.~./.:X1X3XpXsXzXzXnXnX&X&XM.6XeXV.v.x.b.6XBXBXBXVX-X#XW wXbXdXY 3.Z.;XP ~ 9X5.J.aX&.0 f 5.`.<X1X1X/.^.~.j.j.h.h.h.h.",
"h.h.h.j.j.~.^./.1X2X3XpXzXzXnXgXuXI.yXM.D.eX8XwXbXwXb.a.wXBXBXhXQ eXbXbXwXG m.jXcXwX5XaX[ K.[ 0 w [ d.`.<X1X:X/.~.j.j.j.h.h.h.h.",
"h.h.j.j.j.^./.:X1X3XpXsXzXzXnXyXP.U.=XL.S S.6X6XeXbXbXeXx.wXBXS.Q wXbXbXwXg W U ! S.6XaX0 9 9 9 f ' !.<X1X1X/.^.~.j.j.h.f.f.f.h.",
"h.h.j.j.~.^./.1X2X3XsXzXsX&X&X{.}.%XY.&Xx.V.6X6X6XeXwXbXwXx.bXW S.bXbXS.! x x W g O K aX' 8 9 0 ' ;.!.|.1X/./.^.j.j.j.f.h.f.f.h.",
"h.h.j.j.~./.:X2X3XpXsXzXsXR.}.W.Y.t.=XwXC.P ! ! ! v.b.6XbXS.wX~ S.bXV.! h h x.W + O V.bXM.] C @.;.M.!.<X1X/.^.~.j.j.h.h.f.h.h.h.",
"h.h.j.j.~./.1X2X3XsXzXzXzX{.y.2.6.rXB.Q eXwXwXwXwXwXS.! W I V.! S.wXP x x x.W V.+ X V.6X'.M.E c z U 2 |././.~.j.j.f.h.h.f.h.h.h.",
"h.j.j.j.^./.1X3XpXsXsXsXsXY.y.K.|.>.D.wXbXbXbXbXbXbXwXI P S.! S S.x.v.wXV.P x.W b.g x.m.b.N.V.eXwXD.p d./.^.~.k.j.h.h.h.f.h.h.h.",
"h.h.j.j.~./.1X3X3XsXsXsXpX2X X X,.6XbXbXbXbXbXbXbXbXwXb.b.bX6X+ W ! wXwX! S.bXV.b.x.bXbXMXbXbXbX,XZ O.s.^.~.k.j.j.h.h.h.h.h.h.h.",
"h.h.h.j.j.^.:X2X3X3XpXpX3X1X/.s.V.bXbXbXbXbXbXbXbXbXbXP 6XwXS.v g P v.x.V.bXbXV.v.N.bXbXbXbXbX6XC =.d !.^.^.j.j.h.h.h.h.h.h.h.h.",
"h.h.h.h.j.~./.:X1X2X2X1X:X^.d.>.wXbXbXbXbXbXbXbXbXbXwX! b.x.m.+ h 6Xl x ! wXbXV.S.bXbXbXbXwXE V *.=.a ^.~.j.j.h.h.h.h.f.h.f.h.h.",
"h.h.h.h.h.j.k.^.^.^.^.^.~.,.r S.bXbXbXbXbXbXbXbXbXV.+ 6XbXS.U   j 7 z g I b.V.v.6XbXeXb.T i ( -.=.*.%.^.~.j.j.h.h.h.h.h.h.h.h.h.",
"h.h.h.h.h.h.h.j.j.j.j.f.@.c.x wXbXbXbXbXbXbXbXbXwXx.S.N.! v.o $ #X= < OXeXaXv.h 6Xz s o.+.+.+.*.=.i !.~.~.j.h.h.f.h.h.h.f.h.h.h.",
"h.h.f.h.h.h.h.h.h.f.l.L D.S.x.bXbXbXbXbXbXbXbXbXW :.2 @ W l . # & % * W wXS.W b.z c.B 1 ( +.*.*.o.!./.~.j.j.h.h.f.h.h.h.h.h.h.h.",
"h.f.h.h.h.h.h.f.h.l.;.;XwXb.6XbXS.P b.D.wXwXwXV.+ : d . P O 9.M $ % 6 x.b.~ W x.h 2 Z a +.*.O.@.(././.~.j.j.h.h.h.h.h.h.h.h.h.h.",
"h.h.h.h.h.h.h.h.l.;.S.0X>.2 S.eXI I S.x.U x x G O * : >.D.l I jXC.q.8XwXS.P 6XwXg n.y V m @.`.<X1X:X^.k.j.h.h.h.h.h.h.h.h.h.h.f.",
"h.h.h.h.h.h.h.f.L m.C.B p 2 V.! ! A.x., ( / V o   # k '.bXb.h V.fXbXbXbXwX! x.wXv.c.'.iXzXsXpX3X1X/.^.j.j.f.h.h.h.h.h.h.h.h.h.h.",
"f.j.h.h.h.h.h.l.E E p o.< r V.! S.bXbXY a a 4 k n M wX~ @XS.W 2 P W x.! g x.v.! eXW C.7XiXpX3X2X:X/.^.j.j.h.h.h.h.h.h.h.h.h.h.h.",
"j.j.j.j.h.h.h.%.A ) O.+.o./ L U b.6XwX6Xm.).9.@XOXV.x S O g ! 6XcXI l A.I wXW S.V.n.>X0X>XtX3X2X:X/.~.j.j.h.h.f.h.h.h.h.h.h.f.h.",
"~.^.^.~.j.j.j.i _ $.$.+.+.O.) 2 2 + 2 2 :.wXdX6X6Xx x.W ! b.! S.W b.eXeXwXbX! c.B.).aXiX`.pX3X1X:X/.~.j.f.h.h.h.h.h.h.h.h.h.f.f.",
"^.:X:X/./.^.~.d.@.C V V C ) @.%.d.d.d.;.7XfXS.2 W m.bXwX! v.x v.eXbXbXbXbXS.W ).I.}.{.iX_.pX3X2X:X^.~.j.j.h.h.h.h.h.h.h.h.h.f.h.",
"/.1X1X X<X1X1X:X/.(.H.!.H.(././.:X1X<Xs.:.V.x x v.eXbXwXI W wXbXbXwXS.v.wXx M.L.%X=X{..X_.3X3X2X:X^.~.j.j.h.h.h.h.h.h.h.h.h.f.h.",
"1X XoXJ.[.<XtX3X3X3X2X3X2X2X2X3X3X<X`.>X,XC.W wXx.! wXP V.bXbXbXeXx v.wXwXm.t.%X*X=X*XP.`.pX3X2X:X/.~.j.j.h.h.f.h.h.h.h.h.h.f.h.",
"1X|.XXR.u.P.rXaXsXsXsXsXsXsXsXsX>X>XiXwXaX8X! 6XbXW W eXbXwX6XW ! S.wXbXb.,.T.%X*X=XtX&XP.pX3X1X1X/.^.j.j.h.f.h.h.h.h.h.h.h.f.h.",
" XXXXX.XR.2.P.iXlXVXVXVXVXVXnX6X0XwXfXbXbXbXeXI W V.bXwXD.! P I ! A '.wXG 2.+X%X&X=XuXuX[.tX3X1X1X/.^.j.j.h.h.f.h.f.f.h.h.h.h.h.",
"oX3XtX*X}.u...&XbXwXbXBXBXBX,XwXjXbXMXBXBXBXbXx.6XwXS.V.x P V.b.k @.E wXN e.%X*X*X=XuXsX{.XX3X1X1X/.~.j.j.h.h.f.h.h.h.h.h.h.h.h.",
"oXtXtX*X}.T.2.3.aXbXbXwXbXjXjXcXbXbXBXBXBXBXS.x.D.9.I x v.3 K N.j ) m.wXe Y.$X%X=XtXuXsXtX[.3X2X:X/.~.j.j.h.h.f.h.h.h.h.h.h.h.h.",
"oXtXtX*X*X}.i.| {.bXBXbX9X5XcXcXMXMXVXmXBXwXb.h 2 g wXwXz < ^ n C Z C.wXN T.E.%X*XuXuXsXpXoX3X2X:X/.~.j.j.f.f.f.h.h.h.h.h.h.h.h.",
"oXtXpXtX*X}.W.e...wXBXbX5XcXbXbXMXbXNXVXbXA Z m > < Q wXwX! 3 #.$._ M.wXS G.r.%X=XuXsXsXsXJ.3X2X:X/.~.j.j.f.f.h.h.h.h.h.h.h.h.h.",
"[.tXsXuX=X%XE.i.| I.bX0XwXbXMXMXMXNXBXNXNXb.3 u p 3 r c.bXeXA #.&._ ;.wX:.,.p.*X=XuXsXsXsXJ.2X2X:X/.~.j.j.h.f.h.f.f.h.h.h.h.h.h.",
"oXpXsXtX=X*XW.T.4.w.wX9XcXbXMXMXMXMXNXMXNXA - : , x.8XbXbXS.k ^ _ 4 m c.Z.{ +X*X*XuXuXsXsXJ.2X1X1X/.~.j.j.h.f.f.f.h.h.h.h.h.h.h.",
"oXtXpXsXtX*XW.T.i...'.wXfXbXbXbXbXbXbXMX6X, - y :.6XbXS.v.G , u u u M B '.q.*X*XuXyXuXsXtXJ.3X2X:X/.~.j.j.h.f.f.h.h.h.h.h.h.h.h.",
"[.2XpXtXuX&XI.E.T.w.).bXfXbXbXbXbXbXcX>.B y , t ! 6XS.P x.U O.b b m 1 ^ T >.%X=XuXyXsXsXXX[.2X1X:X/.~.j.j.h.f.f.h.h.h.h.h.h.h.h.",
" XoXtXuXuX*XU.].].).wXjXbXbXcXjXwXwX6Xy y :.6XV.z W c h P 3 _ Y y m j ) j R E.=X=XuXsXsXoX2X3X1X/.^.~.j.j.h.h.h.h.h.h.h.h.h.h.h.",
"2XK.tXsXuX=Xy.w.7X,XwXbX9X9X9X6X:.T Q y b.wXbXM.V 2 r , l U T 9.m m Q b A S.>.*XuXuXsXuXP.pX3X1X:X^.~.j.f.f.h.f.h.h.h.h.h.h.h.h.",
"3XK.XXpXtXyXW.X...).wXbXwXbXjXC.y C , b wXwX6Xj p Q < ; T S.S.U @.r 6X:.eXbXR -XyXuXsX[.|.2X3X1X/.^.k.j.f.h.h.h.h.h.h.h.h.h.h.h.",
"3X X{.tXyX&X%XQ...I.eXaXeXcX:.j < 4 4 B eXQ D ) < :.u M A V.S.A.c.wXbXbXbXbXb.).tX&X.XrX>X4X3X1X/.^.~.j.h.f.h.h.h.h.h.h.h.h.h.h.",
"2X2XJ.*X&X&X%XE.Q.U.7XeX0X;.m 3 :.A u 3 r < _ _ > ] 1 O._ j D.eXbXbXbXbXbXbXbXG '.>X>X>X<X2X3X2X/.^.k.j.h.f.f.h.h.h.h.h.h.h.h.h.",
"2X2XJ.}.&X*X}.W.T.T.q.7XY y o S aXE.q.N : 1 a 5 q q y _ 5 < c.wXbXbXbXbXbXbXbXS.eXaX,X>X4XtX3X1X:X^.~.j.f.f.h.h.h.h.h.h.h.h.h.h.",
"1X3X XJ..XXX}.W.Q.i.r.S.t >.S Z.bXE.e.e - - 4 = 8 q ,.m 4 r v.wXbXbXbXbXbXbXbXwX9.aX>X_.xXpX3X1X:X/.^.j.f.f.h.h.h.h.h.h.h.h.h.h.",
"1X2X2XoXR.}.W.Q.Q.L.#X6Xv.0XwXbXbXhX..| <.Y E ` ^ M.wXQ k I S.bXbXbXbXbXbXbXbXbXV.V.0X,XiXpXpX2X1X/.~.j.j.h.h.h.h.h.h.h.h.h.h.h.",
":X1X2X2XK.W.W.T.P.].bXVXBXbXS.wXbXMXgXhXbXeX9X@X6X5X0XwXx.S.6XbXbXbXbXbXbXbXbXbXcXx.>X`.`.iX3X2X1X/.^.~.j.h.h.h.h.h.h.h.h.h.h.h.",
"^.:X1X2X2X[.R.P.7XbXBXBXBXBXMXwXbXMXVXVXbXS.9XbXbXwXA.N.! S.eXbXbXbXbXbXbXbXbXbXbXS.3 C Z D s.2X2X:X/.~.k.j.h.h.h.h.h.h.h.h.h.h.",
"^./.:X1X3XpXpXsXnXnXVXBXBXBXBXlXbXbXbXbXwXm.b.N.;X9XA.;X! S.wXbXbXbXbXbXbXbXbXbXbXbX>.) $.$.^ C s.1X/.~.j.j.j.h.h.h.h.h.h.h.h.h.",
"~.^./.1X1X3XpXsXzXnXVXBXmXBXBXwXwXlXbXjXA.wXbXwXA.V.eXbX! S.wXbXbXbXbXbXbXbXbXbXbXbX@Xn ^ O.$.$.) ,./.^.~.j.j.h.h.h.h.h.h.h.f.h.",
"j.~.^.:X1X3XpXsXzXnXnXVXBXBXBXwX7XeX0X;X6XBXVXmXbXbXbXBX! V.8XbXbXbXbXbXbXbXbXbXbXbXwXk 3 u m ^ O.) s./.^.~.j.j.h.h.h.f.h.h.h.h.",
"j.j.~./.:X2X3XpXsXzXnXVXBXBXBXBXwX9XA.;XwXBXBXBXBXBXbXBXV.x.6XbXbXbXbXbXwXwXbXbXbXbXwXP M.M F m p ` Z !./.^.j.j.j.h.h.f.f.h.h.h.",
"h.j.j.~./.1X3X3XpXsXnXnXnXnXmXVXBXBX6XwXwXBXBXBXBXbXbXbXaXx.S.bXb.V.6X6XI P V.wXbXbXbXz.C.] 4.u.@.p _ @.:X/.~.j.j.h.h.h.h.h.h.h.",
"h.h.j.~.^./.2X3XpXsXzXnXyX{.E.$XhXVXwXwXcXBXBXBXbXbXMXqXBXcXI wX6Xx.I P l J g x.6XbXbXOXc.{ 8. .{ 1 p 5.(./.^.~.j.j.j.h.h.h.h.h.",
"h.h.j.j.~./.:X3XpXsXzXsX&XsXfX&XE.$X7X9XMXBXBXBXbXbXbXwXBXBXbXx.S.6XS.;XP 6X'.U x.@XwXwX! I.J.{ 6 V M J.H.(././.~.j.j.j.j.h.f.h.",
"h.h.h.j.k.^.:X1X3XsXzXgX&X}..XW.E.Y.G.6XBXBXBXbXbXbXcXbXBXBXBXVXv.'.6XS.v.S.8XD.K v.6XwXI E 3 u V 5  .8.K.J.H.(.^.~.j.j.j.j.h.h.",
"h.h.h.j.j.^./.1X3XpXsXsXgX{.R.w.e.u.u.].BXBXBXbXfXbX8XbXBXBXmX$XL.q.m.eXD.W 8X'.n.x ! V.r ) ) D G.[.J.u.8.7.K.H.H.~.^.~.j.j.j.j.",
"h.h.h.j.j.~./.1X3XpX[.{.&X&Xp.2...X...t.MXbXbXbXbXbXI.-X&X8XM.I.yX-X0.W T 2 M.-XU.Q , ; 1 D B.lXnXnXsXXXK.7.7.7.H.H.~.^.~.k.~.j.",
"h.h.f.j.j.k.^.:X1X3X.X*XtX{.Y.y. .3.2.t.aXbXbXbXbX8X$X$Xr.B m b ,.].-X0.m _ B r.p.Z.S M < Z.mXBXVXnXnXsXtXoXJ.7.7.H.H.~.^.^.^.~.",
"h.h.f.f.j.j.^./.1X3XtXR.{.&XY.t.2.| 3.X.U.wXwXbXeXU.w.E.F ^ > _ p Z n <.D _ ^ 5 ..#X2 4 p ).nXVXVXnXzXzXsXpXtXK.K.7.H.H.(././.^.",
"h.f.h.h.j.j.^./.1X3XpX.Xy.6.Y.e.e.....3.I.wX9XN.:.r. .p.D u _ V 4 _ _ V V _ ( p } #X3 > O.Z T T E E S L T M.iXrXoXu.7.(.(.(././.",
"h.h.h.h.j.j.~././.1XpXpXR.3.4.e.4.| u.aXlXaXA.b.@XyXfXMXOXD D i - ^ ( ( / ^ m n ,.aX>.3 u _ $.$.$.$.#.#.#.m : 3 Z ,.u.7.oX(./.1X",
"h.h.f.f.h.j.~.^.H.K.J. XJ.u.K.y.4.3.yXnXaXbXwXeXwXmXbXbXmXbXdX8X).A 3 < 3 H r.L.yXhXI.L.<.y / ( _ #.V u > : ; u #.L [.K.K.oXH.1X",
"h.h.f.f.h.j.~.~.H.7.K.y.y.u.K.tX}.R.aXnXaXnXaXaXfXaX&XyXbXbXnXmXbXfXP.w.r.E.=X-XE.E.T.T.L.8XM.Y y ^ ^ / u 3 ; b >._.sXR.u.oXoXJ."
};
